<mxfile host="app.diagrams.net" modified="2021-12-13T07:17:53.319Z" agent="5.0 (Windows NT 10.0; Win64; x64) AppleWebKit/537.36 (KHTML, like Gecko) Chrome/96.0.4664.93 Safari/537.36" etag="ceV6Y4BzCUhT_KjV1x4v" version="15.9.4" type="github" pages="3">
  <diagram id="44bqtlpU4LyTsHwCAsyh" name="basic execution">
    <mxGraphModel dx="1422" dy="729" grid="1" gridSize="10" guides="1" tooltips="1" connect="1" arrows="1" fold="1" page="1" pageScale="1" pageWidth="850" pageHeight="1100" math="0" shadow="0">
      <root>
        <mxCell id="0" />
        <mxCell id="1" parent="0" />
        <mxCell id="U8Bb4aq34TSj757WVQ3O-3" value="" style="edgeStyle=orthogonalEdgeStyle;rounded=0;orthogonalLoop=1;jettySize=auto;html=1;" edge="1" parent="1" source="U8Bb4aq34TSj757WVQ3O-1" target="U8Bb4aq34TSj757WVQ3O-2">
          <mxGeometry relative="1" as="geometry" />
        </mxCell>
        <mxCell id="U8Bb4aq34TSj757WVQ3O-1" value="ctrl + F11 (to run the java class) main method" style="rounded=1;whiteSpace=wrap;html=1;" vertex="1" parent="1">
          <mxGeometry x="140" y="140" width="460" height="60" as="geometry" />
        </mxCell>
        <mxCell id="U8Bb4aq34TSj757WVQ3O-6" value="" style="edgeStyle=orthogonalEdgeStyle;rounded=0;orthogonalLoop=1;jettySize=auto;html=1;" edge="1" parent="1" source="U8Bb4aq34TSj757WVQ3O-2" target="U8Bb4aq34TSj757WVQ3O-5">
          <mxGeometry relative="1" as="geometry" />
        </mxCell>
        <mxCell id="U8Bb4aq34TSj757WVQ3O-2" value=".class" style="whiteSpace=wrap;html=1;rounded=1;" vertex="1" parent="1">
          <mxGeometry x="310" y="280" width="120" height="60" as="geometry" />
        </mxCell>
        <mxCell id="U8Bb4aq34TSj757WVQ3O-4" value="javac command ( it is taken care by eclipse/STS)" style="text;html=1;strokeColor=#9673a6;fillColor=#e1d5e7;align=center;verticalAlign=middle;whiteSpace=wrap;rounded=0;" vertex="1" parent="1">
          <mxGeometry x="390" y="230" width="200" height="30" as="geometry" />
        </mxCell>
        <mxCell id="U8Bb4aq34TSj757WVQ3O-5" value="java CLASSNAME ( it will exectute it and display the result on the console screen)" style="whiteSpace=wrap;html=1;rounded=1;fillColor=#dae8fc;strokeColor=#6c8ebf;" vertex="1" parent="1">
          <mxGeometry x="242.5" y="450" width="255" height="90" as="geometry" />
        </mxCell>
      </root>
    </mxGraphModel>
  </diagram>
  <diagram id="pGjsijaH4lELaAYHweMb" name="layered Architecture">
    <mxGraphModel dx="2272" dy="729" grid="1" gridSize="10" guides="1" tooltips="1" connect="1" arrows="1" fold="1" page="1" pageScale="1" pageWidth="850" pageHeight="1100" math="0" shadow="0">
      <root>
        <mxCell id="wBwKBnnMjtXPXyTRf2XF-0" />
        <mxCell id="wBwKBnnMjtXPXyTRf2XF-1" parent="wBwKBnnMjtXPXyTRf2XF-0" />
        <mxCell id="wBwKBnnMjtXPXyTRf2XF-2" value="Layered Architecture" style="rounded=1;whiteSpace=wrap;html=1;fontSize=25;" vertex="1" parent="wBwKBnnMjtXPXyTRf2XF-1">
          <mxGeometry x="180" y="60" width="540" height="60" as="geometry" />
        </mxCell>
        <mxCell id="wBwKBnnMjtXPXyTRf2XF-5" value="" style="edgeStyle=orthogonalEdgeStyle;rounded=0;orthogonalLoop=1;jettySize=auto;html=1;fontSize=12;" edge="1" parent="wBwKBnnMjtXPXyTRf2XF-1" source="wBwKBnnMjtXPXyTRf2XF-3" target="wBwKBnnMjtXPXyTRf2XF-4">
          <mxGeometry relative="1" as="geometry" />
        </mxCell>
        <mxCell id="wBwKBnnMjtXPXyTRf2XF-3" value="Main method(entry point for ur application)" style="rounded=1;whiteSpace=wrap;html=1;fontSize=12;" vertex="1" parent="wBwKBnnMjtXPXyTRf2XF-1">
          <mxGeometry x="180" y="180" width="540" height="60" as="geometry" />
        </mxCell>
        <mxCell id="wBwKBnnMjtXPXyTRf2XF-7" value="" style="edgeStyle=orthogonalEdgeStyle;rounded=0;orthogonalLoop=1;jettySize=auto;html=1;fontSize=12;" edge="1" parent="wBwKBnnMjtXPXyTRf2XF-1" source="wBwKBnnMjtXPXyTRf2XF-4" target="wBwKBnnMjtXPXyTRf2XF-6">
          <mxGeometry relative="1" as="geometry" />
        </mxCell>
        <mxCell id="wBwKBnnMjtXPXyTRf2XF-13" value="" style="edgeStyle=orthogonalEdgeStyle;rounded=0;orthogonalLoop=1;jettySize=auto;html=1;fontSize=12;" edge="1" parent="wBwKBnnMjtXPXyTRf2XF-1" source="wBwKBnnMjtXPXyTRf2XF-4" target="wBwKBnnMjtXPXyTRf2XF-12">
          <mxGeometry relative="1" as="geometry" />
        </mxCell>
        <mxCell id="wBwKBnnMjtXPXyTRf2XF-15" value="" style="edgeStyle=orthogonalEdgeStyle;rounded=0;orthogonalLoop=1;jettySize=auto;html=1;fontSize=12;" edge="1" parent="wBwKBnnMjtXPXyTRf2XF-1" source="wBwKBnnMjtXPXyTRf2XF-4" target="wBwKBnnMjtXPXyTRf2XF-14">
          <mxGeometry relative="1" as="geometry" />
        </mxCell>
        <mxCell id="wBwKBnnMjtXPXyTRf2XF-4" value="Service" style="whiteSpace=wrap;html=1;rounded=1;" vertex="1" parent="wBwKBnnMjtXPXyTRf2XF-1">
          <mxGeometry x="180" y="320" width="540" height="60" as="geometry" />
        </mxCell>
        <mxCell id="wBwKBnnMjtXPXyTRf2XF-11" style="edgeStyle=orthogonalEdgeStyle;rounded=0;orthogonalLoop=1;jettySize=auto;html=1;entryX=0.5;entryY=0;entryDx=0;entryDy=0;entryPerimeter=0;fontSize=12;" edge="1" parent="wBwKBnnMjtXPXyTRf2XF-1" source="wBwKBnnMjtXPXyTRf2XF-6" target="wBwKBnnMjtXPXyTRf2XF-10">
          <mxGeometry relative="1" as="geometry" />
        </mxCell>
        <mxCell id="wBwKBnnMjtXPXyTRf2XF-17" value="" style="edgeStyle=orthogonalEdgeStyle;rounded=0;orthogonalLoop=1;jettySize=auto;html=1;fontSize=12;" edge="1" parent="wBwKBnnMjtXPXyTRf2XF-1" source="wBwKBnnMjtXPXyTRf2XF-6" target="wBwKBnnMjtXPXyTRf2XF-16">
          <mxGeometry relative="1" as="geometry" />
        </mxCell>
        <mxCell id="wBwKBnnMjtXPXyTRf2XF-6" value="repository" style="whiteSpace=wrap;html=1;rounded=1;" vertex="1" parent="wBwKBnnMjtXPXyTRf2XF-1">
          <mxGeometry x="180" y="460" width="540" height="60" as="geometry" />
        </mxCell>
        <mxCell id="wBwKBnnMjtXPXyTRf2XF-19" value="" style="edgeStyle=orthogonalEdgeStyle;rounded=0;orthogonalLoop=1;jettySize=auto;html=1;fontSize=12;" edge="1" parent="wBwKBnnMjtXPXyTRf2XF-1" source="wBwKBnnMjtXPXyTRf2XF-10" target="wBwKBnnMjtXPXyTRf2XF-18">
          <mxGeometry relative="1" as="geometry" />
        </mxCell>
        <mxCell id="wBwKBnnMjtXPXyTRf2XF-10" value="DB" style="shape=cylinder3;whiteSpace=wrap;html=1;boundedLbl=1;backgroundOutline=1;size=15;fontSize=12;" vertex="1" parent="wBwKBnnMjtXPXyTRf2XF-1">
          <mxGeometry x="420" y="590" width="60" height="80" as="geometry" />
        </mxCell>
        <mxCell id="wBwKBnnMjtXPXyTRf2XF-12" value="it has to connect with multiple applications to validate the data." style="whiteSpace=wrap;html=1;rounded=1;fillColor=#ffe6cc;strokeColor=#d79b00;" vertex="1" parent="wBwKBnnMjtXPXyTRf2XF-1">
          <mxGeometry x="800" y="320" width="190" height="60" as="geometry" />
        </mxCell>
        <mxCell id="wBwKBnnMjtXPXyTRf2XF-14" value="Business Rules for ur application" style="whiteSpace=wrap;html=1;rounded=1;" vertex="1" parent="wBwKBnnMjtXPXyTRf2XF-1">
          <mxGeometry x="-80" y="320" width="120" height="60" as="geometry" />
        </mxCell>
        <mxCell id="wBwKBnnMjtXPXyTRf2XF-16" value="this layer has a code to store/ retrieve the data from the DATABASE." style="whiteSpace=wrap;html=1;rounded=1;fillColor=#d5e8d4;strokeColor=#82b366;" vertex="1" parent="wBwKBnnMjtXPXyTRf2XF-1">
          <mxGeometry x="820" y="460" width="200" height="60" as="geometry" />
        </mxCell>
        <mxCell id="wBwKBnnMjtXPXyTRf2XF-18" value="TO STORE THE DATA" style="whiteSpace=wrap;html=1;" vertex="1" parent="wBwKBnnMjtXPXyTRf2XF-1">
          <mxGeometry x="820" y="600" width="120" height="60" as="geometry" />
        </mxCell>
        <mxCell id="wBwKBnnMjtXPXyTRf2XF-20" value="utils : to have some utilities like connect to db , close connection to db, password encryption/ decryption" style="rounded=1;whiteSpace=wrap;html=1;fontSize=12;" vertex="1" parent="wBwKBnnMjtXPXyTRf2XF-1">
          <mxGeometry x="-170" y="480" width="260" height="60" as="geometry" />
        </mxCell>
        <mxCell id="wBwKBnnMjtXPXyTRf2XF-23" style="edgeStyle=orthogonalEdgeStyle;rounded=0;orthogonalLoop=1;jettySize=auto;html=1;fontSize=12;" edge="1" parent="wBwKBnnMjtXPXyTRf2XF-1" source="wBwKBnnMjtXPXyTRf2XF-21" target="wBwKBnnMjtXPXyTRf2XF-22">
          <mxGeometry relative="1" as="geometry" />
        </mxCell>
        <mxCell id="wBwKBnnMjtXPXyTRf2XF-21" value="to propagate the data from one layer to another layer." style="text;html=1;strokeColor=#b85450;fillColor=#f8cecc;align=center;verticalAlign=middle;whiteSpace=wrap;rounded=0;fontSize=12;" vertex="1" parent="wBwKBnnMjtXPXyTRf2XF-1">
          <mxGeometry x="490" y="260" width="270" height="30" as="geometry" />
        </mxCell>
        <mxCell id="wBwKBnnMjtXPXyTRf2XF-22" value="dto : data transport object (to propagate/transport data from one layer to another layer)" style="rounded=1;whiteSpace=wrap;html=1;fontSize=12;fillColor=#e1d5e7;strokeColor=#9673a6;" vertex="1" parent="wBwKBnnMjtXPXyTRf2XF-1">
          <mxGeometry x="860" y="240" width="250" height="60" as="geometry" />
        </mxCell>
        <mxCell id="wBwKBnnMjtXPXyTRf2XF-26" value="" style="edgeStyle=orthogonalEdgeStyle;rounded=0;orthogonalLoop=1;jettySize=auto;html=1;fontSize=12;" edge="1" parent="wBwKBnnMjtXPXyTRf2XF-1" source="wBwKBnnMjtXPXyTRf2XF-24" target="wBwKBnnMjtXPXyTRf2XF-25">
          <mxGeometry relative="1" as="geometry" />
        </mxCell>
        <mxCell id="wBwKBnnMjtXPXyTRf2XF-28" value="" style="edgeStyle=orthogonalEdgeStyle;rounded=0;orthogonalLoop=1;jettySize=auto;html=1;fontSize=12;" edge="1" parent="wBwKBnnMjtXPXyTRf2XF-1" source="wBwKBnnMjtXPXyTRf2XF-24" target="wBwKBnnMjtXPXyTRf2XF-27">
          <mxGeometry relative="1" as="geometry" />
        </mxCell>
        <mxCell id="wBwKBnnMjtXPXyTRf2XF-30" value="" style="edgeStyle=orthogonalEdgeStyle;rounded=0;orthogonalLoop=1;jettySize=auto;html=1;fontSize=12;" edge="1" parent="wBwKBnnMjtXPXyTRf2XF-1" source="wBwKBnnMjtXPXyTRf2XF-24" target="wBwKBnnMjtXPXyTRf2XF-29">
          <mxGeometry relative="1" as="geometry" />
        </mxCell>
        <mxCell id="wBwKBnnMjtXPXyTRf2XF-24" value="EmployeeManagement Project" style="rounded=1;whiteSpace=wrap;html=1;fontSize=12;" vertex="1" parent="wBwKBnnMjtXPXyTRf2XF-1">
          <mxGeometry x="400" y="810" width="210" height="60" as="geometry" />
        </mxCell>
        <mxCell id="wBwKBnnMjtXPXyTRf2XF-32" value="" style="edgeStyle=orthogonalEdgeStyle;rounded=0;orthogonalLoop=1;jettySize=auto;html=1;fontSize=12;" edge="1" parent="wBwKBnnMjtXPXyTRf2XF-1" source="wBwKBnnMjtXPXyTRf2XF-25" target="wBwKBnnMjtXPXyTRf2XF-31">
          <mxGeometry relative="1" as="geometry" />
        </mxCell>
        <mxCell id="wBwKBnnMjtXPXyTRf2XF-25" value="Employee" style="whiteSpace=wrap;html=1;rounded=1;" vertex="1" parent="wBwKBnnMjtXPXyTRf2XF-1">
          <mxGeometry x="230" y="970" width="120" height="60" as="geometry" />
        </mxCell>
        <mxCell id="wBwKBnnMjtXPXyTRf2XF-27" value="Department" style="whiteSpace=wrap;html=1;rounded=1;" vertex="1" parent="wBwKBnnMjtXPXyTRf2XF-1">
          <mxGeometry x="445" y="970" width="120" height="60" as="geometry" />
        </mxCell>
        <mxCell id="wBwKBnnMjtXPXyTRf2XF-29" value="Location" style="whiteSpace=wrap;html=1;rounded=1;" vertex="1" parent="wBwKBnnMjtXPXyTRf2XF-1">
          <mxGeometry x="680" y="970" width="120" height="60" as="geometry" />
        </mxCell>
        <mxCell id="wBwKBnnMjtXPXyTRf2XF-31" value="1. add the employee details in to the system&lt;br&gt;2. update the empl details&lt;br&gt;3. retrieve the employee/ employees details with various criteria&lt;br&gt;4. delete the employee details" style="whiteSpace=wrap;html=1;rounded=1;fillColor=#f5f5f5;fontColor=#333333;strokeColor=#666666;" vertex="1" parent="wBwKBnnMjtXPXyTRf2XF-1">
          <mxGeometry x="130" y="1110" width="320" height="160" as="geometry" />
        </mxCell>
      </root>
    </mxGraphModel>
  </diagram>
  <diagram id="zGIsWGfHHZyVlhc5PJdv" name="emp layered archi">
    <mxGraphModel dx="1422" dy="729" grid="1" gridSize="10" guides="1" tooltips="1" connect="1" arrows="1" fold="1" page="1" pageScale="1" pageWidth="850" pageHeight="1100" math="0" shadow="0">
      <root>
        <mxCell id="S59G7o2Gz0paoqSSLFve-0" />
        <mxCell id="S59G7o2Gz0paoqSSLFve-1" parent="S59G7o2Gz0paoqSSLFve-0" />
        <mxCell id="S7da7bSzfPxyJit1gOqs-5" value="" style="edgeStyle=orthogonalEdgeStyle;rounded=0;orthogonalLoop=1;jettySize=auto;html=1;fontSize=12;" edge="1" parent="S59G7o2Gz0paoqSSLFve-1" source="S7da7bSzfPxyJit1gOqs-0" target="S7da7bSzfPxyJit1gOqs-1">
          <mxGeometry relative="1" as="geometry" />
        </mxCell>
        <mxCell id="S7da7bSzfPxyJit1gOqs-0" value="Layered Architecture" style="rounded=1;whiteSpace=wrap;html=1;fontSize=25;" vertex="1" parent="S59G7o2Gz0paoqSSLFve-1">
          <mxGeometry x="180" y="60" width="540" height="60" as="geometry" />
        </mxCell>
        <mxCell id="S7da7bSzfPxyJit1gOqs-6" value="" style="edgeStyle=orthogonalEdgeStyle;rounded=0;orthogonalLoop=1;jettySize=auto;html=1;fontSize=12;" edge="1" parent="S59G7o2Gz0paoqSSLFve-1" source="S7da7bSzfPxyJit1gOqs-1" target="S7da7bSzfPxyJit1gOqs-2">
          <mxGeometry relative="1" as="geometry" />
        </mxCell>
        <mxCell id="S7da7bSzfPxyJit1gOqs-1" value="Main method(entry point for ur application)" style="rounded=1;whiteSpace=wrap;html=1;fontSize=12;" vertex="1" parent="S59G7o2Gz0paoqSSLFve-1">
          <mxGeometry x="180" y="180" width="540" height="60" as="geometry" />
        </mxCell>
        <mxCell id="S7da7bSzfPxyJit1gOqs-7" value="" style="edgeStyle=orthogonalEdgeStyle;rounded=0;orthogonalLoop=1;jettySize=auto;html=1;fontSize=12;" edge="1" parent="S59G7o2Gz0paoqSSLFve-1" source="S7da7bSzfPxyJit1gOqs-2" target="S7da7bSzfPxyJit1gOqs-3">
          <mxGeometry relative="1" as="geometry" />
        </mxCell>
        <mxCell id="XuBrwc32Oz9Cc0o0zx1T-1" value="" style="edgeStyle=orthogonalEdgeStyle;rounded=0;orthogonalLoop=1;jettySize=auto;html=1;fontSize=12;" edge="1" parent="S59G7o2Gz0paoqSSLFve-1" source="S7da7bSzfPxyJit1gOqs-2" target="XuBrwc32Oz9Cc0o0zx1T-0">
          <mxGeometry relative="1" as="geometry">
            <Array as="points">
              <mxPoint x="860" y="350" />
              <mxPoint x="860" y="290" />
            </Array>
          </mxGeometry>
        </mxCell>
        <mxCell id="XuBrwc32Oz9Cc0o0zx1T-3" value="" style="edgeStyle=orthogonalEdgeStyle;rounded=0;orthogonalLoop=1;jettySize=auto;html=1;fontSize=12;" edge="1" parent="S59G7o2Gz0paoqSSLFve-1" source="S7da7bSzfPxyJit1gOqs-2" target="XuBrwc32Oz9Cc0o0zx1T-2">
          <mxGeometry relative="1" as="geometry">
            <Array as="points">
              <mxPoint x="860" y="350" />
              <mxPoint x="860" y="440" />
            </Array>
          </mxGeometry>
        </mxCell>
        <mxCell id="S7da7bSzfPxyJit1gOqs-2" value="EmployeeService" style="whiteSpace=wrap;html=1;rounded=1;" vertex="1" parent="S59G7o2Gz0paoqSSLFve-1">
          <mxGeometry x="180" y="320" width="540" height="60" as="geometry" />
        </mxCell>
        <mxCell id="S7da7bSzfPxyJit1gOqs-8" value="" style="edgeStyle=orthogonalEdgeStyle;rounded=0;orthogonalLoop=1;jettySize=auto;html=1;fontSize=12;" edge="1" parent="S59G7o2Gz0paoqSSLFve-1" source="S7da7bSzfPxyJit1gOqs-3" target="S7da7bSzfPxyJit1gOqs-4">
          <mxGeometry relative="1" as="geometry" />
        </mxCell>
        <mxCell id="3exO_2V48oAmcC_ycoTt-1" value="" style="edgeStyle=orthogonalEdgeStyle;rounded=0;orthogonalLoop=1;jettySize=auto;html=1;fontSize=12;" edge="1" parent="S59G7o2Gz0paoqSSLFve-1" source="S7da7bSzfPxyJit1gOqs-3" target="3exO_2V48oAmcC_ycoTt-0">
          <mxGeometry relative="1" as="geometry" />
        </mxCell>
        <mxCell id="3exO_2V48oAmcC_ycoTt-3" value="" style="edgeStyle=orthogonalEdgeStyle;rounded=0;orthogonalLoop=1;jettySize=auto;html=1;fontSize=12;" edge="1" parent="S59G7o2Gz0paoqSSLFve-1" source="S7da7bSzfPxyJit1gOqs-3" target="3exO_2V48oAmcC_ycoTt-2">
          <mxGeometry relative="1" as="geometry" />
        </mxCell>
        <mxCell id="S7da7bSzfPxyJit1gOqs-3" value="EmployeeRepository" style="whiteSpace=wrap;html=1;rounded=1;" vertex="1" parent="S59G7o2Gz0paoqSSLFve-1">
          <mxGeometry x="180" y="460" width="540" height="60" as="geometry" />
        </mxCell>
        <mxCell id="S7da7bSzfPxyJit1gOqs-4" value="DB" style="shape=cylinder3;whiteSpace=wrap;html=1;boundedLbl=1;backgroundOutline=1;size=15;fontSize=12;" vertex="1" parent="S59G7o2Gz0paoqSSLFve-1">
          <mxGeometry x="420" y="590" width="60" height="80" as="geometry" />
        </mxCell>
        <mxCell id="XuBrwc32Oz9Cc0o0zx1T-0" value="vendors to manage them." style="whiteSpace=wrap;html=1;rounded=1;" vertex="1" parent="S59G7o2Gz0paoqSSLFve-1">
          <mxGeometry x="1010" y="260" width="120" height="60" as="geometry" />
        </mxCell>
        <mxCell id="XuBrwc32Oz9Cc0o0zx1T-2" value="" style="whiteSpace=wrap;html=1;rounded=1;" vertex="1" parent="S59G7o2Gz0paoqSSLFve-1">
          <mxGeometry x="1010" y="410" width="120" height="60" as="geometry" />
        </mxCell>
        <mxCell id="XuBrwc32Oz9Cc0o0zx1T-4" value="interface : contract : whenever we need the contract , we will inject the contracts. how by implementing interface" style="rounded=1;whiteSpace=wrap;html=1;fontSize=12;" vertex="1" parent="S59G7o2Gz0paoqSSLFve-1">
          <mxGeometry x="390" y="780" width="300" height="80" as="geometry" />
        </mxCell>
        <mxCell id="3exO_2V48oAmcC_ycoTt-0" value="ORacle" style="whiteSpace=wrap;html=1;rounded=1;" vertex="1" parent="S59G7o2Gz0paoqSSLFve-1">
          <mxGeometry x="1010" y="510" width="120" height="60" as="geometry" />
        </mxCell>
        <mxCell id="3exO_2V48oAmcC_ycoTt-2" value="mysql" style="whiteSpace=wrap;html=1;rounded=1;" vertex="1" parent="S59G7o2Gz0paoqSSLFve-1">
          <mxGeometry x="900" y="720" width="120" height="60" as="geometry" />
        </mxCell>
        <mxCell id="3exO_2V48oAmcC_ycoTt-4" value="EmployeeRepository employeeRepository = new EmployeeRepositoryMySQLImpl();" style="rounded=1;whiteSpace=wrap;html=1;fontSize=12;fillColor=#ffe6cc;strokeColor=#d79b00;" vertex="1" parent="S59G7o2Gz0paoqSSLFve-1">
          <mxGeometry x="800" y="810" width="440" height="60" as="geometry" />
        </mxCell>
        <mxCell id="3exO_2V48oAmcC_ycoTt-7" value="" style="edgeStyle=orthogonalEdgeStyle;rounded=0;orthogonalLoop=1;jettySize=auto;html=1;fontSize=12;" edge="1" parent="S59G7o2Gz0paoqSSLFve-1" source="3exO_2V48oAmcC_ycoTt-5" target="3exO_2V48oAmcC_ycoTt-6">
          <mxGeometry relative="1" as="geometry" />
        </mxCell>
        <mxCell id="3exO_2V48oAmcC_ycoTt-9" value="" style="edgeStyle=orthogonalEdgeStyle;rounded=0;orthogonalLoop=1;jettySize=auto;html=1;fontSize=12;" edge="1" parent="S59G7o2Gz0paoqSSLFve-1" source="3exO_2V48oAmcC_ycoTt-5" target="3exO_2V48oAmcC_ycoTt-8">
          <mxGeometry relative="1" as="geometry" />
        </mxCell>
        <mxCell id="3exO_2V48oAmcC_ycoTt-5" value="Singleton Object" style="rounded=1;whiteSpace=wrap;html=1;fontSize=12;" vertex="1" parent="S59G7o2Gz0paoqSSLFve-1">
          <mxGeometry x="230" y="1000" width="200" height="60" as="geometry" />
        </mxCell>
        <mxCell id="3exO_2V48oAmcC_ycoTt-6" value="there will be only one object through out the application." style="whiteSpace=wrap;html=1;rounded=1;" vertex="1" parent="S59G7o2Gz0paoqSSLFve-1">
          <mxGeometry x="550" y="1000" width="240" height="60" as="geometry" />
        </mxCell>
        <mxCell id="3exO_2V48oAmcC_ycoTt-11" value="" style="edgeStyle=orthogonalEdgeStyle;rounded=0;orthogonalLoop=1;jettySize=auto;html=1;fontSize=12;" edge="1" parent="S59G7o2Gz0paoqSSLFve-1" source="3exO_2V48oAmcC_ycoTt-8" target="3exO_2V48oAmcC_ycoTt-10">
          <mxGeometry relative="1" as="geometry" />
        </mxCell>
        <mxCell id="3exO_2V48oAmcC_ycoTt-13" value="" style="edgeStyle=orthogonalEdgeStyle;rounded=0;orthogonalLoop=1;jettySize=auto;html=1;fontSize=12;" edge="1" parent="S59G7o2Gz0paoqSSLFve-1" source="3exO_2V48oAmcC_ycoTt-8" target="3exO_2V48oAmcC_ycoTt-12">
          <mxGeometry relative="1" as="geometry" />
        </mxCell>
        <mxCell id="3exO_2V48oAmcC_ycoTt-8" value="SingletonDesign pattern" style="whiteSpace=wrap;html=1;rounded=1;" vertex="1" parent="S59G7o2Gz0paoqSSLFve-1">
          <mxGeometry x="270" y="1140" width="120" height="60" as="geometry" />
        </mxCell>
        <mxCell id="3exO_2V48oAmcC_ycoTt-10" value="it will allow you to create only one object" style="whiteSpace=wrap;html=1;rounded=1;" vertex="1" parent="S59G7o2Gz0paoqSSLFve-1">
          <mxGeometry x="470" y="1140" width="290" height="60" as="geometry" />
        </mxCell>
        <mxCell id="3exO_2V48oAmcC_ycoTt-12" value="1. we should have a method called getInstance() which will return the singleton object &amp;amp; it should be a static method.&lt;br&gt;2. can we declare a private constructor? yes : in sinlgleton DP.&lt;br&gt;3. can we create the static ref ? yes ===&amp;gt; only one.;" style="whiteSpace=wrap;html=1;rounded=1;" vertex="1" parent="S59G7o2Gz0paoqSSLFve-1">
          <mxGeometry x="160" y="1280" width="340" height="210" as="geometry" />
        </mxCell>
      </root>
    </mxGraphModel>
  </diagram>
</mxfile>
